<svg xmlns="http://www.w3.org/2000/svg" viewBox="0 0 24 28.75" fill="none">
  <path fill-rule="evenodd" clip-rule="evenodd" d="M1 2a1 1 0 0 1 0-2h2.7a1 1 0 0 1 .969.75l.803 2.998h16.346a2 2 0 0 1 1.919 2.564l-2.056 7a2 2 0 0 1-1.919 1.436H7.792A2 2 0 0 1 5.85 13.23l-1.22-4.897a1.043 1.043 0 0 1-.012-.044L2.933 2H1zm6.792 10.748h11.97l2.056-7H6.048l1.744 7zM8.99 22.748a3.5 3.5 0 1 0 0-7 3.5 3.5 0 0 0 0 7zm0-2a1.5 1.5 0 1 0 0-3 1.5 1.5 0 0 0 0 3zM21.49 19.248a3.5 3.5 0 1 1-7 0 3.5 3.5 0 0 1 7 0zm-2 0a1.5 1.5 0 1 1-3 0 1.5 1.5 0 0 1 3 0z" fill="#000"/>
</svg>