<svg xmlns="http://www.w3.org/2000/svg" xmlns:xlink="http://www.w3.org/1999/xlink" version="1.1" x="0px" y="0px" viewBox="0 0 96 120" enable-background="new 0 0 96 96" xml:space="preserve"><path d="M48,7.5C25.668,7.5,7.5,25.668,7.5,48c0,22.332,18.168,40.5,40.5,40.5c22.332,0,40.5-18.168,40.5-40.5  C88.5,25.668,70.332,7.5,48,7.5z M68.27,51H51v17.27c0,1.654-1.346,3-3,3s-3-1.346-3-3V51H27.73c-1.654,0-3-1.346-3-3s1.346-3,3-3  H45V27.73c0-1.654,1.346-3,3-3s3,1.346,3,3V45h17.27c1.654,0,3,1.346,3,3S69.924,51,68.27,51z"/></svg>